{"asset": {"version": "2.0", "generator": "wam-compiler"}, "scene": 0, "scenes": [{"nodes": [0, 1]}], "nodes": [{"name": "mesh", "mesh": 0, "skin": 0}, {"name": "pelvis", "translation": [0.0, 1.08000012, 0.0], "children": [2]}, {"name": "hips", "translation": [0.0, 0.0, 0.0], "children": [3]}, {"name": "spine", "translation": [0.0, 0.06000021000000002, 0.0], "children": [4, 5]}, {"name": "clavicle.l", "translation": [0.0, 0.29999922000000007, 0.0], "children": [6]}, {"name": "clavicle.r", "translation": [0.0, 0.29999922000000007, 0.0], "children": [7]}, {"name": "upperArm.l", "translation": [0.6326144005120449, -0.3223331367775483, 0.0], "children": [8]}, {"name": "upperArm.r", "translation": [-0.6326144005120449, -0.3223331367775483, 0.0], "children": [9]}, {"name": "foreArm.l", "translation": [0.11258290412029132, -0.06499976999999994, 0.0], "children": [10]}, {"name": "foreArm.r", "translation": [-0.11258290412029132, -0.06499976999999994, 0.0], "children": [11]}, {"name": "hand.l", "translation": [0.0842644827395327, -0.07001818757209916, 0.00984041452573143]}, {"name": "hand.r", "translation": [-0.0842644827395327, -0.07001818757209916, 0.00984041452573143]}], "meshes": [{"primitives": [{"attributes": {"POSITION": 0, "NORMAL": 1, "JOINTS_0": 2, "WEIGHTS_0": 3}, "indices": 4, "material": 0}, {"attributes": {"POSITION": 0, "NORMAL": 1, "JOINTS_0": 2, "WEIGHTS_0": 3}, "indices": 5, "material": 1}]}], "skins": [{"joints": [1, 2, 3, 4, 5, 6, 7, 8, 9, 10, 11], "inverseBindMatrices": 6}], "materials": [{"name": "iron", "pbrMetallicRoughness": {"baseColorFactor": [0.30196078431372547, 0.3176470588235294, 0.3411764705882353, 1.0], "metallicFactor": 0.0, "roughnessFactor": 0.9}}, {"name": "brass", "pbrMetallicRoughness": {"baseColorFactor": [0.5411764705882353, 0.41568627450980394, 0.20392156862745098, 1.0], "metallicFactor": 0.0, "roughnessFactor": 0.9}}], "buffers": [{"byteLength": 12512, "uri": "data:application/octet-stream;base64,"}], "bufferViews": [{"buffer": 0, "byteOffset": 0, "byteLength": 2376, "target": 34962}, {"buffer": 0, "byteOffset": 2376, "byteLength": 2376, "target": 34962}, {"buffer": 0, "byteOffset": 4752, "byteLength": 1584, "target": 34962}, {"buffer": 0, "byteOffset": 6336, "byteLength": 3168, "target": 34962}, {"buffer": 0, "byteOffset": 9504, "byteLength": 1920, "target": 34963}, {"buffer": 0, "byteOffset": 11424, "byteLength": 384, "target": 34963}, {"buffer": 0, "byteOffset": 11808, "byteLength": 704}], "accessors": [{"bufferView": 0, "componentType": 5126, "count": 198, "type": "VEC3", "min": [-0.9344179034233093, 0.7180469632148743, -0.04247736558318138], "max": [0.9344179034233093, 1.0170923471450806, 0.06490861624479294]}, {"bufferView": 1, "componentType": 5126, "count": 198, "type": "VEC3", "min": [-0.9958471059799194, -0.9603059887886047, -0.9958471059799194], "max": [0.9958471059799194, 0.9532870650291443, 0.9958471059799194]}, {"bufferView": 2, "componentType": 5123, "count": 198, "type": "VEC4"}, {"bufferView": 3, "componentType": 5126, "count": 198, "type": "VEC4"}, {"bufferView": 4, "componentType": 5125, "count": 480, "type": "SCALAR"}, {"bufferView": 5, "componentType": 5125, "count": 96, "type": "SCALAR"}, {"bufferView": 6, "componentType": 5126, "count": 11, "type": "MAT4"}]}