{"asset": {"version": "2.0", "generator": "wam-compiler"}, "scene": 0, "scenes": [{"nodes": [0, 1]}], "nodes": [{"name": "mesh", "mesh": 0, "skin": 0}, {"name": "pelvis", "translation": [0.0, 0.5799997, 0.0], "children": [2]}, {"name": "hips", "translation": [0.0, 0.0, 0.0], "children": [3, 15, 16]}, {"name": "spine", "translation": [0.0, 0.13999960000000006, 0.0], "children": [4]}, {"name": "chest", "translation": [0.0, 0.37083860706406435, 0.19717838500016807], "children": [5, 7, 8]}, {"name": "neck", "translation": [0.0, 0.3758764844987909, 0.13680785211818147], "children": [6]}, {"name": "skull", "translation": [0.0, 0.08829546564396697, 0.046947531855839324], "children": [21, 22]}, {"name": "clavicle.l", "translation": [0.0, 0.3758764844987909, 0.13680785211818147], "children": [9]}, {"name": "clavicle.r", "translation": [0.0, 0.3758764844987909, 0.13680785211818147], "children": [10]}, {"name": "upperArm.l", "translation": [0.273880545687385, 0.05821510709962001, 0.0], "children": [11]}, {"name": "upperArm.r", "translation": [-0.273880545687385, 0.05821510709962001, 0.0], "children": [12]}, {"name": "foreArm.l", "translation": [0.16538216541657924, -0.5711432011991646, 0.08026894223112647], "children": [13, 25]}, {"name": "foreArm.r", "translation": [-0.16538216541657924, -0.5711432011991646, 0.08026894223112647], "children": [14, 26]}, {"name": "hand.l", "translation": [0.058535970788424915, -0.5515125303756088, 0.07751003136781606]}, {"name": "hand.r", "translation": [-0.058535970788424915, -0.5515125303756088, 0.07751003136781606]}, {"name": "thigh.l", "translation": [0.1499993, 0.13999960000000006, 0.0], "children": [17]}, {"name": "thigh.r", "translation": [-0.1499993, 0.13999960000000006, 0.0], "children": [18]}, {"name": "shin.l", "translation": [0.08098251453442401, -0.3473601013585479, 0.04881827858723761], "children": [19]}, {"name": "shin.r", "translation": [-0.08098251453442401, -0.3473601013585479, 0.04881827858723761], "children": [20]}, {"name": "foot.l", "translation": [0.0, -0.2403155201107493, 0.06890936651798536]}, {"name": "foot.r", "translation": [0.0, -0.2403155201107493, 0.06890936651798536]}, {"name": "horn1.l", "translation": [0.1045, 0.14493490906600281, 0.05019286501083331], "children": [23]}, {"name": "horn1.r", "translation": [-0.1045, 0.14493490906600281, 0.05019286501083331], "children": [24]}, {"name": "horn2.l", "translation": [0.03426688570439286, 0.01713344285219649, -0.10736957520709761]}, {"name": "horn2.r", "translation": [-0.03426688570439286, 0.01713344285219649, -0.10736957520709761]}, {"name": "tusk1.l", "translation": [0.0862679853942124, -0.2757562651878044, 0.07675501568390801], "children": [27]}, {"name": "tusk1.r", "translation": [-0.0862679853942124, -0.2757562651878044, 0.07675501568390801], "children": [28]}, {"name": "tusk2.l", "translation": [0.048508244861744466, -0.09701648972348904, 0.11965367065896976]}, {"name": "tusk2.r", "translation": [-0.048508244861744466, -0.09701648972348904, 0.11965367065896976]}], "meshes": [{"primitives": [{"attributes": {"POSITION": 0, "NORMAL": 1, "JOINTS_0": 2, "WEIGHTS_0": 3}, "indices": 4, "material": 0}, {"attributes": {"POSITION": 0, "NORMAL": 1, "JOINTS_0": 2, "WEIGHTS_0": 3}, "indices": 5, "material": 1}]}], "skins": [{"joints": [1, 2, 3, 4, 5, 6, 7, 8, 9, 10, 11, 12, 13, 14, 15, 16, 17, 18, 19, 20, 21, 22, 23, 24, 25, 26, 27, 28], "inverseBindMatrices": 6}], "materials": [{"name": "horn", "pbrMetallicRoughness": {"baseColorFactor": [0.23529411764705882, 0.16470588235294117, 0.10980392156862745, 1.0], "metallicFactor": 0.0, "roughnessFactor": 0.9}}, {"name": "ivory", "pbrMetallicRoughness": {"baseColorFactor": [0.9019607843137255, 0.8509803921568627, 0.7411764705882353, 1.0], "metallicFactor": 0.0, "roughnessFactor": 0.9}}], "buffers": [{"byteLength": 15328, "uri": "data:application/octet-stream;base64,"}], "bufferViews": [{"buffer": 0, "byteOffset": 0, "byteLength": 2424, "target": 34962}, {"buffer": 0, "byteOffset": 2424, "byteLength": 2424, "target": 34962}, {"buffer": 0, "byteOffset": 4848, "byteLength": 1616, "target": 34962}, {"buffer": 0, "byteOffset": 6464, "byteLength": 3232, "target": 34962}, {"buffer": 0, "byteOffset": 9696, "byteLength": 2112, "target": 34963}, {"buffer": 0, "byteOffset": 11808, "byteLength": 1728, "target": 34963}, {"buffer": 0, "byteOffset": 13536, "byteLength": 1792}], "accessors": [{"bufferView": 0, "componentType": 5126, "count": 202, "type": "VEC3", "min": [-0.5942438244819641, 0.49256500601768494, 0.22986210882663727], "max": [0.5942438244819641, 1.7450660467147827, 0.6941986083984375]}, {"bufferView": 1, "componentType": 5126, "count": 202, "type": "VEC3", "min": [-0.9727721810340881, -0.9791485071182251, -0.9785820841789246], "max": [0.9727721810340881, 0.9621478319168091, 0.8186361193656921]}, {"bufferView": 2, "componentType": 5123, "count": 202, "type": "VEC4"}, {"bufferView": 3, "componentType": 5126, "count": 202, "type": "VEC4"}, {"bufferView": 4, "componentType": 5125, "count": 528, "type": "SCALAR"}, {"bufferView": 5, "componentType": 5125, "count": 432, "type": "SCALAR"}, {"bufferView": 6, "componentType": 5126, "count": 28, "type": "MAT4"}]}